<svg width="144" height="24" viewBox="0 0 144 24" fill="none" xmlns="http://www.w3.org/2000/svg">
<path id="loopstudios" fill-rule="evenodd" clip-rule="evenodd" d="M2.02084 19.7428C3.13762 19.7428 4.04168 18.8381 4.04168 17.7206V2.02217C4.04168 0.904656 3.13762 0 2.02084 0C0.90406 0 0 0.904656 0 2.02217V17.7206C0 18.8381 0.90406 19.7428 2.02084 19.7428ZM13.6502 19.9024C18.0907 19.9024 21.3878 16.5765 21.3878 12.4789V12.4257C21.3878 8.32816 18.1173 5.05543 13.7033 5.05543C9.26281 5.05543 5.96565 8.38137 5.96565 12.4789V12.5322C5.96565 16.6297 9.23622 19.9024 13.6502 19.9024ZM9.95415 12.4789C9.95415 14.5809 11.4698 16.4169 13.7033 16.4169C16.0167 16.4169 17.3994 14.6341 17.3994 12.5322V12.4789C17.3994 10.3769 15.8837 8.54102 13.6502 8.54102C11.3368 8.54102 9.95415 10.3237 9.95415 12.4257V12.4789ZM30.1189 19.9024C34.5594 19.9024 37.8566 16.5765 37.8566 12.4789V12.4257C37.8566 8.32816 34.586 5.05543 30.172 5.05543C25.7315 5.05543 22.4344 8.38137 22.4344 12.4789V12.5322C22.4344 16.6297 25.7049 19.9024 30.1189 19.9024ZM26.4229 12.4789C26.4229 14.5809 27.9385 16.4169 30.172 16.4169C32.4854 16.4169 33.8681 14.6341 33.8681 12.5322V12.4789C33.8681 10.3769 32.3524 8.54102 30.1189 8.54102C27.8055 8.54102 26.4229 10.3237 26.4229 12.4257V12.4789ZM41.6152 24C42.732 24 43.6361 23.0953 43.6361 21.9778V17.7206C44.5933 18.8647 45.9228 19.8492 48.0766 19.8492C51.4535 19.8492 54.5646 17.2417 54.5646 12.4789V12.4257C54.5646 7.66297 51.4004 5.05543 48.0766 5.05543C45.976 5.05543 44.6199 6.03991 43.6361 7.37029V7.18404C43.6361 6.06652 42.732 5.16186 41.6152 5.16186C40.4985 5.16186 39.5944 6.06652 39.5944 7.18404V21.9778C39.5944 23.0953 40.4985 24 41.6152 24ZM43.5829 12.4789C43.5829 14.847 45.1517 16.4169 47.0396 16.4169C48.9275 16.4169 50.5229 14.8736 50.5229 12.4789V12.4257C50.5229 10.0576 48.9275 8.4878 47.0396 8.4878C45.1517 8.4878 43.5829 10.0576 43.5829 12.4257V12.4789ZM61.3545 19.8492C64.4389 19.8492 66.8055 18.4124 66.8055 15.2461V15.1929C66.8055 12.5854 64.4921 11.6275 62.4979 10.9623C62.3462 10.91 62.1963 10.8592 62.0494 10.8094C60.702 10.3528 59.5996 9.97914 59.5996 9.25942V9.20621C59.5996 8.64745 60.1048 8.22173 61.0886 8.22173C61.9395 8.22173 63.0297 8.56763 64.173 9.12639C64.4389 9.25942 64.6251 9.31264 64.9176 9.31264C65.8216 9.31264 66.5396 8.62084 66.5396 7.71619C66.5396 7.02439 66.1673 6.49224 65.5823 6.19956C64.1996 5.50776 62.6574 5.10865 61.1684 5.10865C58.2967 5.10865 55.9567 6.73171 55.9567 9.63193V9.68514C55.9567 12.4523 58.2169 13.3836 60.2111 13.969C60.3941 14.0248 60.5746 14.0781 60.7506 14.1302C62.0837 14.5241 63.1626 14.843 63.1626 15.6186V15.6718C63.1626 16.3104 62.6308 16.7361 61.4609 16.7361C60.3175 16.7361 58.9614 16.3104 57.6053 15.459C57.3926 15.3259 57.1001 15.2461 56.8076 15.2461C55.9036 15.2461 55.2122 15.9379 55.2122 16.8426C55.2122 17.4812 55.5579 17.9601 55.9833 18.2262C57.7117 19.3437 59.5996 19.8492 61.3545 19.8492ZM75.3769 19.4235C74.6324 19.7162 73.9411 19.8226 73.0636 19.8226C70.5907 19.8226 68.9156 18.8381 68.9156 15.5388V8.78049H68.7826C67.8254 8.78049 67.0543 8.00887 67.0543 7.051C67.0543 6.09313 67.8254 5.32151 68.7826 5.32151H68.9156V3.5388C68.9156 2.42129 69.8196 1.51663 70.9364 1.51663C72.0532 1.51663 72.9572 2.42129 72.9572 3.5388V5.32151H74.7388C75.696 5.32151 76.4671 6.09313 76.4671 7.051C76.4671 8.00887 75.696 8.78049 74.7388 8.78049H72.9572V14.8736C72.9572 15.8049 73.3561 16.2572 74.2601 16.2572C74.3351 16.2572 74.4522 16.2488 74.5545 16.2414L74.5546 16.2414C74.6337 16.2357 74.704 16.2306 74.7388 16.2306C75.6428 16.2306 76.4139 16.9756 76.4139 17.9069C76.4139 18.6253 75.9353 19.2106 75.3769 19.4235ZM82.8316 19.8492C84.8791 19.8492 86.0756 18.7583 87.0062 17.561V17.7206C87.0062 18.8381 87.9103 19.7428 89.0271 19.7428C90.1439 19.7428 91.0479 18.8381 91.0479 17.7206V7.18404C91.0479 6.06652 90.1439 5.16186 89.0271 5.16186C87.9103 5.16186 87.0062 6.06652 87.0062 7.18404V13.2772C87.0062 15.1929 86.0224 16.1774 84.4802 16.1774C82.938 16.1774 82.0339 15.1929 82.0339 13.2772V7.18404C82.0339 6.06652 81.1299 5.16186 80.0131 5.16186C78.8963 5.16186 77.9922 6.06652 77.9922 7.18404V14.5543C77.9922 17.8271 79.7738 19.8492 82.8316 19.8492ZM103.767 17.5344C102.784 18.8647 101.428 19.8492 99.3269 19.8492C96.0032 19.8492 92.839 17.2417 92.839 12.4789V12.4257C92.839 7.66297 95.95 5.05543 99.3269 5.05543C101.481 5.05543 102.81 6.03991 103.767 7.18404V2.02217C103.767 0.904656 104.672 0 105.788 0C106.905 0 107.809 0.904656 107.809 2.02217V17.7206C107.809 18.8381 106.905 19.7428 105.788 19.7428C104.672 19.7428 103.767 18.8381 103.767 17.7206V17.5344ZM100.364 16.4169C98.476 16.4169 96.8806 14.847 96.8806 12.4789V12.4257C96.8806 10.031 98.476 8.4878 100.364 8.4878C102.252 8.4878 103.821 10.0576 103.821 12.4257V12.4789C103.821 14.847 102.252 16.4169 100.364 16.4169ZM114.705 1.96896C114.705 3.13969 113.722 3.8847 112.445 3.8847C111.169 3.8847 110.185 3.13969 110.185 1.96896V1.91574C110.185 0.745011 111.169 0.0266075 112.445 0.0266075C113.722 0.0266075 114.705 0.745011 114.705 1.91574V1.96896ZM112.445 19.7428C113.562 19.7428 114.466 18.8381 114.466 17.7206V7.18404C114.466 6.06652 113.562 5.16186 112.445 5.16186C111.328 5.16186 110.424 6.06652 110.424 7.18404V17.7206C110.424 18.8381 111.328 19.7428 112.445 19.7428ZM131.812 12.4789C131.812 16.5765 128.515 19.9024 124.075 19.9024C119.661 19.9024 116.39 16.6297 116.39 12.5322V12.4789C116.39 8.38137 119.687 5.05543 124.128 5.05543C128.542 5.05543 131.812 8.32816 131.812 12.4257V12.4789ZM124.128 16.4169C121.894 16.4169 120.379 14.5809 120.379 12.4789V12.4257C120.379 10.3237 121.761 8.54102 124.075 8.54102C126.308 8.54102 127.824 10.3769 127.824 12.4789V12.5322C127.824 14.6341 126.441 16.4169 124.128 16.4169ZM144 15.2461C144 18.4124 141.633 19.8492 138.549 19.8492C136.794 19.8492 134.906 19.3437 133.178 18.2262C132.752 17.9601 132.407 17.4812 132.407 16.8426C132.407 15.9379 133.098 15.2461 134.002 15.2461C134.295 15.2461 134.587 15.3259 134.8 15.459C136.156 16.3104 137.512 16.7361 138.655 16.7361C139.825 16.7361 140.357 16.3104 140.357 15.6718V15.6186C140.357 14.843 139.278 14.5241 137.945 14.1302C137.769 14.0781 137.589 14.0248 137.406 13.969C135.411 13.3836 133.151 12.4523 133.151 9.68514V9.63193C133.151 6.73171 135.491 5.10865 138.363 5.10865C139.852 5.10865 141.394 5.50776 142.777 6.19956C143.362 6.49224 143.734 7.02439 143.734 7.71619C143.734 8.62084 143.016 9.31264 142.112 9.31264C141.82 9.31264 141.633 9.25942 141.368 9.12639C140.224 8.56763 139.134 8.22173 138.283 8.22173C137.299 8.22173 136.794 8.64745 136.794 9.20621V9.25942C136.794 9.97914 137.897 10.3528 139.244 10.8094C139.391 10.8592 139.541 10.91 139.692 10.9623C141.687 11.6275 144 12.5854 144 15.1929V15.2461Z" fill="white"/>
</svg>
